# This file uses centimeters as units for non-parametric coordinates.

mtllib Flask 1.mtl
g default
v -0.167597 -0.167597 17.748857
v 0.167597 -0.167597 17.748857
v -0.167597 0.167597 17.748857
v 0.167597 0.167597 17.748857
v -0.167597 0.167597 17.606783
v 0.167597 0.167597 17.606783
v -0.167597 -0.167597 17.606783
v 0.167597 -0.167597 17.606783
v -0.500000 -0.500000 16.197020
v 0.000000 0.000000 17.197020
v -0.500000 0.500000 16.197020
v 0.500000 0.500000 16.197020
v 0.500000 -0.500000 16.197020
v -0.149595 -0.149595 17.683773
v 0.149595 -0.149595 17.683773
v -0.149595 0.149595 17.683773
v 0.149595 0.149595 17.683773
v -0.149595 0.149595 16.683773
v 0.149595 0.149595 16.683773
v -0.149595 -0.149595 16.683773
v 0.149595 -0.149595 16.683773
vt 0.776075 0.139322
vt 0.843782 0.139322
vt 0.843782 0.207029
vt 0.776075 0.207029
vt 0.843782 0.274736
vt 0.776075 0.274736
vt 0.843782 0.342442
vt 0.776075 0.342442
vt 0.843782 0.410149
vt 0.776075 0.410149
vt 0.911489 0.139322
vt 0.911489 0.207029
vt 0.708368 0.139322
vt 0.708368 0.207029
vt 0.255000 0.010000
vt 0.570000 0.395000
vt 0.255000 0.255000
vt 0.255000 0.500000
vt 0.255000 0.745000
vt 0.255000 0.990000
vt 0.010000 0.010000
vt 0.010000 0.255000
vt 0.579542 0.010000
vt 0.702790 0.010000
vt 0.702790 0.133248
vt 0.579542 0.133248
vt 0.702790 0.256495
vt 0.579542 0.256495
vt 0.702790 0.379743
vt 0.579542 0.379743
vt 0.702790 0.502991
vt 0.579542 0.502991
vt 0.826038 0.010000
vt 0.826038 0.133248
vt 0.456295 0.010000
vt 0.456295 0.133248
vn 0.000000 0.000000 1.000000
vn 0.000000 0.000000 1.000000
vn 0.000000 0.000000 1.000000
vn 0.000000 0.000000 1.000000
vn 0.000000 1.000000 0.000000
vn 0.000000 1.000000 0.000000
vn 0.000000 1.000000 0.000000
vn 0.000000 1.000000 0.000000
vn 0.000000 0.000000 -1.000000
vn 0.000000 0.000000 -1.000000
vn 0.000000 0.000000 -1.000000
vn 0.000000 0.000000 -1.000000
vn 0.000000 -1.000000 0.000000
vn 0.000000 -1.000000 0.000000
vn 0.000000 -1.000000 0.000000
vn 0.000000 -1.000000 0.000000
vn 1.000000 0.000000 0.000000
vn 1.000000 0.000000 0.000000
vn 1.000000 0.000000 0.000000
vn 1.000000 0.000000 0.000000
vn -1.000000 0.000000 0.000000
vn -1.000000 0.000000 0.000000
vn -1.000000 0.000000 0.000000
vn -1.000000 0.000000 0.000000
vn -0.894427 0.000000 0.447214
vn -0.894427 0.000000 0.447214
vn -0.894427 0.000000 0.447214
vn 0.000000 0.894427 0.447214
vn 0.000000 0.894427 0.447214
vn 0.000000 0.894427 0.447214
vn 0.894427 0.000000 0.447214
vn 0.894427 0.000000 0.447214
vn 0.894427 0.000000 0.447214
vn 0.000000 -0.894427 0.447214
vn 0.000000 -0.894427 0.447214
vn 0.000000 -0.894427 0.447214
vn 0.000002 0.000000 -1.000000
vn 0.000002 0.000000 -1.000000
vn 0.000002 0.000000 -1.000000
vn 0.000002 0.000000 -1.000000
vn 0.000000 0.000000 1.000000
vn 0.000000 0.000000 1.000000
vn 0.000000 0.000000 1.000000
vn 0.000000 0.000000 1.000000
vn 0.000000 1.000000 0.000000
vn 0.000000 1.000000 0.000000
vn 0.000000 1.000000 0.000000
vn 0.000000 1.000000 0.000000
vn 0.000000 0.000000 -1.000000
vn 0.000000 0.000000 -1.000000
vn 0.000000 0.000000 -1.000000
vn 0.000000 0.000000 -1.000000
vn 0.000000 -1.000000 0.000000
vn 0.000000 -1.000000 0.000000
vn 0.000000 -1.000000 0.000000
vn 0.000000 -1.000000 0.000000
vn 1.000000 0.000000 0.000000
vn 1.000000 0.000000 0.000000
vn 1.000000 0.000000 0.000000
vn 1.000000 0.000000 0.000000
vn -1.000000 0.000000 0.000000
vn -1.000000 0.000000 0.000000
vn -1.000000 0.000000 0.000000
vn -1.000000 0.000000 0.000000
s off
g Flask_1:pCube4
usemtl standardSurface2SG
f 1/1/1 2/2/2 4/3/3 3/4/4
f 3/4/5 4/3/6 6/5/7 5/6/8
f 5/6/9 6/5/10 8/7/11 7/8/12
f 7/8/13 8/7/14 2/9/15 1/10/16
f 2/2/17 8/11/18 6/12/19 4/3/20
f 7/13/21 1/1/22 3/4/23 5/14/24
f 9/15/25 10/16/26 11/17/27
f 11/17/28 10/16/29 12/18/30
f 12/18/31 10/16/32 13/19/33
f 13/19/34 10/16/35 9/20/36
f 13/21/37 9/15/38 11/17/39 12/22/40
f 14/23/41 15/24/42 17/25/43 16/26/44
f 16/26/45 17/25/46 19/27/47 18/28/48
f 18/28/49 19/27/50 21/29/51 20/30/52
f 20/30/53 21/29/54 15/31/55 14/32/56
f 15/24/57 21/33/58 19/34/59 17/25/60
f 20/35/61 14/23/62 16/26/63 18/36/64
