# This file uses centimeters as units for non-parametric coordinates.

mtllib Floor Broken.mtl
g default
v -33.077675 -7.963815 22.994358
v -33.077675 33.077675 22.994358
v -33.077675 33.077675 21.994358
v -33.077675 -7.963815 21.994358
v -15.713804 -9.165923 21.994358
v -0.648469 -4.486259 21.994358
v -0.648469 -4.486259 22.994358
v -15.713804 -9.165923 22.994358
v 13.628237 -11.197379 21.994358
v 13.628237 -11.197379 22.994358
v 26.863153 -12.113754 21.994358
v 26.863153 -12.113754 22.994358
v 33.077675 -21.623219 21.994358
v 33.077675 -21.623219 22.994358
v 33.077675 33.077675 22.994358
v 33.077675 33.077675 21.994358
vt 0.336667 0.077449
vt 0.336667 0.280106
vt 0.010000 0.280106
vt 0.010000 0.077449
vt 0.056764 0.286546
vt 0.043956 0.286546
vt 0.043956 0.372718
vt 0.056764 0.372718
vt 0.031148 0.286546
vt 0.031148 0.372718
vt 0.018340 0.286546
vt 0.018340 0.372718
vt 0.010000 0.286546
vt 0.010000 0.372718
vt 0.663333 0.280106
vt 0.663333 0.606773
vt 0.336667 0.606773
vt 0.990000 0.010000
vt 0.990000 0.280106
vt 0.663333 0.010000
vt 0.663333 0.876879
vt 0.632646 0.829923
vt 0.567295 0.825398
vt 0.496797 0.792260
vt 0.422408 0.815367
vt 0.336667 0.809430
vt 0.422408 0.071513
vt 0.496797 0.094621
vt 0.567295 0.061481
vt 0.632646 0.056956
vt 0.068794 0.372718
vt 0.068794 0.286546
vn -1.000000 0.000000 0.000000
vn -1.000000 0.000000 0.000000
vn -1.000000 0.000000 0.000000
vn -1.000000 0.000000 0.000000
vn 0.106624 -0.994299 0.000000
vn 0.296643 -0.954988 0.000000
vn 0.296643 -0.954988 0.000000
vn 0.106624 -0.994299 0.000000
vn -0.425417 -0.904998 0.000000
vn -0.267168 -0.963650 0.000000
vn -0.267168 -0.963650 0.000000
vn -0.425417 -0.904998 0.000000
vn -0.267168 -0.963650 0.000000
vn -0.069074 -0.997612 0.000000
vn -0.069074 -0.997612 0.000000
vn -0.267168 -0.963650 0.000000
vn -0.837099 -0.547051 0.000000
vn -0.837099 -0.547051 0.000000
vn -0.837099 -0.547051 0.000000
vn -0.837099 -0.547051 0.000000
vn 0.000000 1.000000 0.000000
vn 0.000000 1.000000 0.000000
vn 0.000000 1.000000 0.000000
vn 0.000000 1.000000 0.000000
vn 1.000000 0.000000 0.000000
vn 1.000000 0.000000 0.000000
vn 1.000000 0.000000 0.000000
vn 1.000000 0.000000 0.000000
vn 0.000000 0.000000 -1.000000
vn 0.000000 0.000000 -1.000000
vn 0.000000 0.000000 -1.000000
vn 0.000000 0.000000 -1.000000
vn 0.000000 0.000000 -1.000000
vn 0.000000 0.000000 -1.000000
vn 0.000000 0.000000 -1.000000
vn 0.000000 0.000000 -1.000000
vn 0.000000 0.000000 1.000000
vn 0.000000 0.000000 1.000000
vn 0.000000 0.000000 1.000000
vn 0.000000 0.000000 1.000000
vn 0.000000 0.000000 1.000000
vn 0.000000 0.000000 1.000000
vn 0.000000 0.000000 1.000000
vn 0.000000 0.000000 1.000000
vn 0.106624 -0.994299 0.000000
vn -0.069065 -0.997612 0.000000
vn -0.069065 -0.997612 0.000000
vn 0.106624 -0.994299 0.000000
s off
g Floor_Broken:polySurface1
usemtl initialShadingGroup
f 1/1/1 2/2/2 3/3/3 4/4/4
f 5/5/5 6/6/6 7/7/7 8/8/8
f 6/6/9 9/9/10 10/10/11 7/7/12
f 9/9/13 11/11/14 12/12/15 10/10/16
f 11/11/17 13/13/18 14/14/19 12/12/20
f 2/2/21 15/15/22 16/16/23 3/17/24
f 13/18/25 16/19/26 15/15/27 14/20/28
f 3/17/29 16/16/30 13/21/31 11/22/32 9/23/33 6/24/34 5/25/35 4/26/36
f 14/20/37 15/15/38 2/2/39 1/1/40 8/27/41 7/28/42 10/29/43 12/30/44
f 8/8/45 1/31/46 4/32/47 5/5/48
