# This file uses centimeters as units for non-parametric coordinates.

mtllib Flask 2.mtl
g default
v -0.250025 -0.500000 22.691525
v -0.250025 -0.250025 22.941500
v -0.500000 -0.250025 22.691525
v 0.500000 -0.250025 22.691525
v 0.250025 -0.250025 22.941500
v 0.250025 -0.500000 22.691525
v -0.500000 0.250025 22.691525
v -0.250025 0.250025 22.941500
v -0.250025 0.500000 22.691525
v 0.250025 0.500000 22.691525
v 0.250025 0.250025 22.941500
v 0.500000 0.250025 22.691525
v -0.500000 0.250025 22.191475
v -0.250025 0.500000 22.191475
v -0.250025 0.250025 21.941500
v 0.250025 0.250025 21.941500
v 0.250025 0.500000 22.191475
v 0.500000 0.250025 22.191475
v -0.500000 -0.250025 22.191475
v -0.250025 -0.250025 21.941500
v -0.250025 -0.500000 22.191475
v 0.250025 -0.500000 22.191475
v 0.250025 -0.250025 21.941500
v 0.500000 -0.250025 22.191475
v -0.095084 -0.190148 23.581051
v -0.095084 -0.095084 23.676113
v -0.190148 -0.095084 23.581051
v 0.190148 -0.095084 23.581051
v 0.095084 -0.095084 23.676113
v 0.095084 -0.190148 23.581051
v -0.190148 0.095084 23.581051
v -0.095084 0.095084 23.676113
v -0.095084 0.190148 23.581051
v 0.095084 0.190148 23.581051
v 0.095084 0.095084 23.676113
v 0.190148 0.095084 23.581051
v -0.190148 0.095084 22.883312
v -0.095084 0.190148 22.883312
v -0.095084 0.095084 22.788248
v 0.095084 0.095084 22.788248
v 0.095084 0.190148 22.883312
v 0.190148 0.095084 22.883312
v -0.190148 -0.095084 22.883312
v -0.095084 -0.095084 22.788248
v -0.095084 -0.190148 22.883312
v 0.095084 -0.190148 22.883312
v 0.095084 -0.095084 22.788248
v 0.190148 -0.095084 22.883312
v -0.187927 -0.226214 23.692545
v -0.187927 -0.187927 23.730833
v -0.226214 -0.187927 23.692545
v 0.226214 -0.187927 23.692545
v 0.187927 -0.187927 23.730833
v 0.187927 -0.226214 23.692545
v -0.226214 0.187927 23.692545
v -0.187927 0.187927 23.730833
v -0.187927 0.226214 23.692545
v 0.187927 0.226214 23.692545
v 0.187927 0.187927 23.730833
v 0.226214 0.187927 23.692545
v -0.226214 0.187927 23.615961
v -0.187927 0.226214 23.615961
v -0.187927 0.187927 23.577671
v 0.187927 0.187927 23.577671
v 0.187927 0.226214 23.615961
v 0.226214 0.187927 23.615961
v -0.226214 -0.187927 23.615961
v -0.187927 -0.187927 23.577671
v -0.187927 -0.226214 23.615961
v 0.187927 -0.226214 23.615961
v 0.187927 -0.187927 23.577671
v 0.226214 -0.187927 23.615961
vt 0.253482 0.923062
vt 0.192617 0.923062
vt 0.192617 0.801309
vt 0.253482 0.801309
vt 0.253482 0.070865
vt 0.253482 0.010000
vt 0.375234 0.010000
vt 0.375234 0.070865
vt 0.131752 0.070865
vt 0.253482 0.192617
vt 0.131752 0.192617
vt 0.436099 0.923062
vt 0.375234 0.923062
vt 0.375234 0.801309
vt 0.436099 0.801309
vt 0.496963 0.070865
vt 0.496963 0.192617
vt 0.375234 0.192617
vt 0.192617 0.314346
vt 0.253482 0.314346
vt 0.253482 0.436099
vt 0.192617 0.436099
vt 0.375234 0.314346
vt 0.436099 0.314346
vt 0.436099 0.436099
vt 0.375234 0.436099
vt 0.192617 0.557828
vt 0.253482 0.557828
vt 0.253482 0.679580
vt 0.192617 0.679580
vt 0.375234 0.557828
vt 0.436099 0.557828
vt 0.436099 0.679580
vt 0.375234 0.679580
vt 0.618716 0.070865
vt 0.618716 0.192617
vt 0.010000 0.070865
vt 0.010000 0.192617
vt 0.672028 0.675505
vt 0.639319 0.675505
vt 0.639319 0.572679
vt 0.672028 0.572679
vt 0.672028 0.198843
vt 0.672028 0.166135
vt 0.737456 0.166135
vt 0.737456 0.198843
vt 0.625310 0.198843
vt 0.672028 0.264272
vt 0.625310 0.264272
vt 0.770164 0.675505
vt 0.737456 0.675505
vt 0.737456 0.572679
vt 0.770164 0.572679
vt 0.784174 0.198843
vt 0.784174 0.264272
vt 0.737456 0.264272
vt 0.639319 0.310990
vt 0.672028 0.310990
vt 0.672028 0.413815
vt 0.639319 0.413815
vt 0.737456 0.310990
vt 0.770164 0.310990
vt 0.770164 0.413815
vt 0.737456 0.413815
vt 0.639319 0.460533
vt 0.672028 0.460533
vt 0.672028 0.525962
vt 0.639319 0.525962
vt 0.737456 0.460533
vt 0.770164 0.460533
vt 0.770164 0.525962
vt 0.737456 0.525962
vt 0.886999 0.198843
vt 0.886999 0.264272
vt 0.522484 0.198843
vt 0.522484 0.264272
vt 0.847850 0.595128
vt 0.840627 0.595128
vt 0.840627 0.552446
vt 0.847850 0.552446
vt 0.847850 0.282265
vt 0.847850 0.275042
vt 0.918759 0.275042
vt 0.918759 0.282265
vt 0.819291 0.282265
vt 0.847850 0.353175
vt 0.819291 0.353175
vt 0.925982 0.595128
vt 0.918759 0.595128
vt 0.918759 0.552446
vt 0.925982 0.552446
vt 0.947318 0.282265
vt 0.947318 0.353175
vt 0.918759 0.353175
vt 0.840627 0.381734
vt 0.847850 0.381734
vt 0.847850 0.424415
vt 0.840627 0.424415
vt 0.918759 0.381734
vt 0.925982 0.381734
vt 0.925982 0.424415
vt 0.918759 0.424415
vt 0.840627 0.452976
vt 0.847850 0.452976
vt 0.847850 0.523885
vt 0.840627 0.523885
vt 0.918759 0.452976
vt 0.925982 0.452976
vt 0.925982 0.523885
vt 0.918759 0.523885
vt 0.990000 0.282265
vt 0.990000 0.353175
vt 0.776609 0.282265
vt 0.776609 0.353175
vn -0.707107 -0.707106 0.000000
vn -0.707107 -0.707106 0.000000
vn -0.707107 -0.707106 0.000000
vn -0.707107 -0.707106 0.000000
vn 0.000000 -0.707107 0.707107
vn 0.000000 -0.707107 0.707107
vn 0.000000 -0.707107 0.707107
vn 0.000000 -0.707107 0.707107
vn -0.707107 0.000000 0.707107
vn -0.707107 0.000000 0.707107
vn -0.707107 0.000000 0.707107
vn -0.707107 0.000000 0.707107
vn 0.707107 -0.707106 0.000000
vn 0.707107 -0.707106 0.000000
vn 0.707107 -0.707106 0.000000
vn 0.707107 -0.707106 0.000000
vn 0.707107 0.000000 0.707107
vn 0.707107 0.000000 0.707107
vn 0.707107 0.000000 0.707107
vn 0.707107 0.000000 0.707107
vn -0.707107 0.707106 0.000000
vn -0.707107 0.707106 0.000000
vn -0.707107 0.707106 0.000000
vn -0.707107 0.707106 0.000000
vn 0.000000 0.707107 0.707107
vn 0.000000 0.707107 0.707107
vn 0.000000 0.707107 0.707107
vn 0.000000 0.707107 0.707107
vn 0.707107 0.707106 0.000000
vn 0.707107 0.707106 0.000000
vn 0.707107 0.707106 0.000000
vn 0.707107 0.707106 0.000000
vn -0.707107 0.000000 -0.707107
vn -0.707107 0.000000 -0.707107
vn -0.707107 0.000000 -0.707107
vn -0.707107 0.000000 -0.707107
vn 0.000000 0.707107 -0.707107
vn 0.000000 0.707107 -0.707107
vn 0.000000 0.707107 -0.707107
vn 0.000000 0.707107 -0.707107
vn 0.707107 0.000000 -0.707107
vn 0.707107 0.000000 -0.707107
vn 0.707107 0.000000 -0.707107
vn 0.707107 0.000000 -0.707107
vn 0.000000 -0.707107 -0.707107
vn 0.000000 -0.707107 -0.707107
vn 0.000000 -0.707107 -0.707107
vn 0.000000 -0.707107 -0.707107
vn 0.000000 0.000000 1.000000
vn 0.000000 0.000000 1.000000
vn 0.000000 0.000000 1.000000
vn 0.000000 0.000000 1.000000
vn 0.000000 1.000000 0.000000
vn 0.000000 1.000000 0.000000
vn 0.000000 1.000000 0.000000
vn 0.000000 1.000000 0.000000
vn 0.000000 0.000000 -1.000000
vn 0.000000 0.000000 -1.000000
vn 0.000000 0.000000 -1.000000
vn 0.000000 0.000000 -1.000000
vn 0.000000 -1.000000 0.000000
vn 0.000000 -1.000000 0.000000
vn 0.000000 -1.000000 0.000000
vn 0.000000 -1.000000 0.000000
vn 1.000000 0.000000 0.000000
vn 1.000000 0.000000 0.000000
vn 1.000000 0.000000 0.000000
vn 1.000000 0.000000 0.000000
vn -1.000000 0.000000 0.000000
vn -1.000000 0.000000 0.000000
vn -1.000000 0.000000 0.000000
vn -1.000000 0.000000 0.000000
vn -0.577357 -0.577347 0.577347
vn -0.577357 -0.577347 0.577347
vn -0.577357 -0.577347 0.577347
vn 0.577357 -0.577347 0.577347
vn 0.577357 -0.577347 0.577347
vn 0.577357 -0.577347 0.577347
vn -0.577357 0.577347 0.577347
vn -0.577357 0.577347 0.577347
vn -0.577357 0.577347 0.577347
vn 0.577357 0.577347 0.577347
vn 0.577357 0.577347 0.577347
vn 0.577357 0.577347 0.577347
vn -0.577351 0.577350 -0.577350
vn -0.577351 0.577350 -0.577350
vn -0.577351 0.577350 -0.577350
vn 0.577351 0.577350 -0.577350
vn 0.577351 0.577350 -0.577350
vn 0.577351 0.577350 -0.577350
vn -0.577351 -0.577350 -0.577350
vn -0.577351 -0.577350 -0.577350
vn -0.577351 -0.577350 -0.577350
vn 0.577351 -0.577350 -0.577350
vn 0.577351 -0.577350 -0.577350
vn 0.577351 -0.577350 -0.577350
vn -0.707106 -0.707107 0.000000
vn -0.707106 -0.707107 0.000000
vn -0.707106 -0.707107 0.000000
vn -0.707106 -0.707107 0.000000
vn 0.000000 -0.707098 0.707116
vn 0.000000 -0.707098 0.707116
vn 0.000000 -0.707098 0.707116
vn 0.000000 -0.707098 0.707116
vn -0.707100 0.000000 0.707114
vn -0.707100 0.000000 0.707114
vn -0.707100 0.000000 0.707114
vn -0.707100 0.000000 0.707114
vn 0.707106 -0.707107 0.000000
vn 0.707106 -0.707107 0.000000
vn 0.707106 -0.707107 0.000000
vn 0.707106 -0.707107 0.000000
vn 0.707100 0.000000 0.707114
vn 0.707100 0.000000 0.707114
vn 0.707100 0.000000 0.707114
vn 0.707100 0.000000 0.707114
vn -0.707106 0.707107 0.000000
vn -0.707106 0.707107 0.000000
vn -0.707106 0.707107 0.000000
vn -0.707106 0.707107 0.000000
vn 0.000000 0.707098 0.707116
vn 0.000000 0.707098 0.707116
vn 0.000000 0.707098 0.707116
vn 0.000000 0.707098 0.707116
vn 0.707106 0.707107 0.000000
vn 0.707106 0.707107 0.000000
vn 0.707106 0.707107 0.000000
vn 0.707106 0.707107 0.000000
vn -0.707100 0.000000 -0.707114
vn -0.707100 0.000000 -0.707114
vn -0.707100 0.000000 -0.707114
vn -0.707100 0.000000 -0.707114
vn 0.000000 0.707105 -0.707109
vn 0.000000 0.707105 -0.707109
vn 0.000000 0.707105 -0.707109
vn 0.000000 0.707105 -0.707109
vn 0.707100 0.000000 -0.707114
vn 0.707100 0.000000 -0.707114
vn 0.707100 0.000000 -0.707114
vn 0.707100 0.000000 -0.707114
vn 0.000000 -0.707105 -0.707109
vn 0.000000 -0.707105 -0.707109
vn 0.000000 -0.707105 -0.707109
vn 0.000000 -0.707105 -0.707109
vn 0.000000 0.000000 1.000000
vn 0.000000 0.000000 1.000000
vn 0.000000 0.000000 1.000000
vn 0.000000 0.000000 1.000000
vn 0.000000 1.000000 0.000000
vn 0.000000 1.000000 0.000000
vn 0.000000 1.000000 0.000000
vn 0.000000 1.000000 0.000000
vn 0.000000 0.000000 -1.000000
vn 0.000000 0.000000 -1.000000
vn 0.000000 0.000000 -1.000000
vn 0.000000 0.000000 -1.000000
vn 0.000000 -1.000000 0.000000
vn 0.000000 -1.000000 0.000000
vn 0.000000 -1.000000 0.000000
vn 0.000000 -1.000000 0.000000
vn 1.000000 0.000000 0.000000
vn 1.000000 0.000000 0.000000
vn 1.000000 0.000000 0.000000
vn 1.000000 0.000000 0.000000
vn -1.000000 0.000000 0.000000
vn -1.000000 0.000000 0.000000
vn -1.000000 0.000000 0.000000
vn -1.000000 0.000000 0.000000
vn -0.577344 -0.577346 0.577361
vn -0.577344 -0.577346 0.577361
vn -0.577344 -0.577346 0.577361
vn 0.577344 -0.577346 0.577361
vn 0.577344 -0.577346 0.577361
vn 0.577344 -0.577346 0.577361
vn -0.577344 0.577346 0.577361
vn -0.577344 0.577346 0.577361
vn -0.577344 0.577346 0.577361
vn 0.577344 0.577346 0.577361
vn 0.577344 0.577346 0.577361
vn 0.577344 0.577346 0.577361
vn -0.577360 0.577344 -0.577347
vn -0.577360 0.577344 -0.577347
vn -0.577360 0.577344 -0.577347
vn 0.577360 0.577344 -0.577347
vn 0.577360 0.577344 -0.577347
vn 0.577360 0.577344 -0.577347
vn -0.577360 -0.577344 -0.577347
vn -0.577360 -0.577344 -0.577347
vn -0.577360 -0.577344 -0.577347
vn 0.577360 -0.577344 -0.577347
vn 0.577360 -0.577344 -0.577347
vn 0.577360 -0.577344 -0.577347
vn -0.707110 -0.707104 0.000000
vn -0.707110 -0.707104 0.000000
vn -0.707110 -0.707104 0.000000
vn -0.707110 -0.707104 0.000000
vn 0.000000 -0.707125 0.707089
vn 0.000000 -0.707125 0.707089
vn 0.000000 -0.707125 0.707089
vn 0.000000 -0.707125 0.707089
vn -0.707129 0.000000 0.707085
vn -0.707129 0.000000 0.707085
vn -0.707129 0.000000 0.707085
vn -0.707129 0.000000 0.707085
vn 0.707110 -0.707104 0.000000
vn 0.707110 -0.707104 0.000000
vn 0.707110 -0.707104 0.000000
vn 0.707110 -0.707104 0.000000
vn 0.707129 0.000000 0.707085
vn 0.707129 0.000000 0.707085
vn 0.707129 0.000000 0.707085
vn 0.707129 0.000000 0.707085
vn -0.707110 0.707104 0.000000
vn -0.707110 0.707104 0.000000
vn -0.707110 0.707104 0.000000
vn -0.707110 0.707104 0.000000
vn 0.000000 0.707125 0.707089
vn 0.000000 0.707125 0.707089
vn 0.000000 0.707125 0.707089
vn 0.000000 0.707125 0.707089
vn 0.707110 0.707104 0.000000
vn 0.707110 0.707104 0.000000
vn 0.707110 0.707104 0.000000
vn 0.707110 0.707104 0.000000
vn -0.707152 0.000000 -0.707061
vn -0.707152 0.000000 -0.707061
vn -0.707152 0.000000 -0.707061
vn -0.707152 0.000000 -0.707061
vn 0.000000 0.707142 -0.707071
vn 0.000000 0.707142 -0.707071
vn 0.000000 0.707142 -0.707071
vn 0.000000 0.707142 -0.707071
vn 0.707152 0.000000 -0.707061
vn 0.707152 0.000000 -0.707061
vn 0.707152 0.000000 -0.707061
vn 0.707152 0.000000 -0.707061
vn 0.000000 -0.707142 -0.707071
vn 0.000000 -0.707142 -0.707071
vn 0.000000 -0.707142 -0.707071
vn 0.000000 -0.707142 -0.707071
vn 0.000000 0.000000 1.000000
vn 0.000000 0.000000 1.000000
vn 0.000000 0.000000 1.000000
vn 0.000000 0.000000 1.000000
vn 0.000000 1.000000 0.000000
vn 0.000000 1.000000 0.000000
vn 0.000000 1.000000 0.000000
vn 0.000000 1.000000 0.000000
vn 0.000000 0.000000 -1.000000
vn 0.000000 0.000000 -1.000000
vn 0.000000 0.000000 -1.000000
vn 0.000000 0.000000 -1.000000
vn 0.000000 -1.000000 0.000000
vn 0.000000 -1.000000 0.000000
vn 0.000000 -1.000000 0.000000
vn 0.000000 -1.000000 0.000000
vn 1.000000 0.000000 0.000000
vn 1.000000 0.000000 0.000000
vn 1.000000 0.000000 0.000000
vn 1.000000 0.000000 0.000000
vn -1.000000 0.000000 0.000000
vn -1.000000 0.000000 0.000000
vn -1.000000 0.000000 0.000000
vn -1.000000 0.000000 0.000000
vn -0.577363 -0.577358 0.577330
vn -0.577363 -0.577358 0.577330
vn -0.577363 -0.577358 0.577330
vn 0.577363 -0.577358 0.577330
vn 0.577363 -0.577358 0.577330
vn 0.577363 -0.577358 0.577330
vn -0.577363 0.577358 0.577330
vn -0.577363 0.577358 0.577330
vn -0.577363 0.577358 0.577330
vn 0.577363 0.577358 0.577330
vn 0.577363 0.577358 0.577330
vn 0.577363 0.577358 0.577330
vn -0.577353 0.577377 -0.577320
vn -0.577353 0.577377 -0.577320
vn -0.577353 0.577377 -0.577320
vn 0.577353 0.577377 -0.577320
vn 0.577353 0.577377 -0.577320
vn 0.577353 0.577377 -0.577320
vn -0.577353 -0.577377 -0.577320
vn -0.577353 -0.577377 -0.577320
vn -0.577353 -0.577377 -0.577320
vn 0.577353 -0.577377 -0.577320
vn 0.577353 -0.577377 -0.577320
vn 0.577353 -0.577377 -0.577320
s off
g Flask_2:pCube11
usemtl standardSurface4SG
f 1/1/1 3/2/2 19/3/3 21/4/4
f 2/5/5 1/6/6 6/7/7 5/8/8
f 3/9/9 2/5/10 8/10/11 7/11/12
f 4/12/13 6/13/14 22/14/15 24/15/16
f 5/8/17 4/16/18 12/17/19 11/18/20
f 7/19/21 9/20/22 14/21/23 13/22/24
f 9/20/25 8/10/26 11/18/27 10/23/28
f 10/23/29 12/24/30 18/25/31 17/26/32
f 13/27/33 15/28/34 20/29/35 19/30/36
f 15/28/37 14/21/38 17/26/39 16/31/40
f 16/31/41 18/32/42 24/33/43 23/34/44
f 21/4/45 20/29/46 23/34/47 22/14/48
f 2/5/49 5/8/50 11/18/51 8/10/52
f 9/20/53 10/23/54 17/26/55 14/21/56
f 15/28/57 16/31/58 23/34/59 20/29/60
f 21/4/61 22/14/62 6/13/63 1/1/64
f 4/16/65 24/35/66 18/36/67 12/17/68
f 19/37/69 3/9/70 7/11/71 13/38/72
f 1/6/73 2/5/74 3/9/75
f 4/16/76 5/8/77 6/7/78
f 7/11/79 8/10/80 9/20/81
f 10/23/82 11/18/83 12/17/84
f 13/22/85 14/21/86 15/28/87
f 16/31/88 17/26/89 18/25/90
f 19/30/91 20/29/92 21/4/93
f 22/14/94 23/34/95 24/33/96
f 25/39/97 27/40/98 43/41/99 45/42/100
f 26/43/101 25/44/102 30/45/103 29/46/104
f 27/47/105 26/43/106 32/48/107 31/49/108
f 28/50/109 30/51/110 46/52/111 48/53/112
f 29/46/113 28/54/114 36/55/115 35/56/116
f 31/57/117 33/58/118 38/59/119 37/60/120
f 33/58/121 32/48/122 35/56/123 34/61/124
f 34/61/125 36/62/126 42/63/127 41/64/128
f 37/65/129 39/66/130 44/67/131 43/68/132
f 39/66/133 38/59/134 41/64/135 40/69/136
f 40/69/137 42/70/138 48/71/139 47/72/140
f 45/42/141 44/67/142 47/72/143 46/52/144
f 26/43/145 29/46/146 35/56/147 32/48/148
f 33/58/149 34/61/150 41/64/151 38/59/152
f 39/66/153 40/69/154 47/72/155 44/67/156
f 45/42/157 46/52/158 30/51/159 25/39/160
f 28/54/161 48/73/162 42/74/163 36/55/164
f 43/75/165 27/47/166 31/49/167 37/76/168
f 25/44/169 26/43/170 27/47/171
f 28/54/172 29/46/173 30/45/174
f 31/49/175 32/48/176 33/58/177
f 34/61/178 35/56/179 36/55/180
f 37/60/181 38/59/182 39/66/183
f 40/69/184 41/64/185 42/63/186
f 43/68/187 44/67/188 45/42/189
f 46/52/190 47/72/191 48/71/192
f 49/77/193 51/78/194 67/79/195 69/80/196
f 50/81/197 49/82/198 54/83/199 53/84/200
f 51/85/201 50/81/202 56/86/203 55/87/204
f 52/88/205 54/89/206 70/90/207 72/91/208
f 53/84/209 52/92/210 60/93/211 59/94/212
f 55/95/213 57/96/214 62/97/215 61/98/216
f 57/96/217 56/86/218 59/94/219 58/99/220
f 58/99/221 60/100/222 66/101/223 65/102/224
f 61/103/225 63/104/226 68/105/227 67/106/228
f 63/104/229 62/97/230 65/102/231 64/107/232
f 64/107/233 66/108/234 72/109/235 71/110/236
f 69/80/237 68/105/238 71/110/239 70/90/240
f 50/81/241 53/84/242 59/94/243 56/86/244
f 57/96/245 58/99/246 65/102/247 62/97/248
f 63/104/249 64/107/250 71/110/251 68/105/252
f 69/80/253 70/90/254 54/89/255 49/77/256
f 52/92/257 72/111/258 66/112/259 60/93/260
f 67/113/261 51/85/262 55/87/263 61/114/264
f 49/82/265 50/81/266 51/85/267
f 52/92/268 53/84/269 54/83/270
f 55/87/271 56/86/272 57/96/273
f 58/99/274 59/94/275 60/93/276
f 61/98/277 62/97/278 63/104/279
f 64/107/280 65/102/281 66/101/282
f 67/106/283 68/105/284 69/80/285
f 70/90/286 71/110/287 72/109/288
