# This file uses centimeters as units for non-parametric coordinates.

mtllib pipe solid.mtl
g default
v -9.502759 -1.818035 36.392654
v -8.404204 -1.818035 36.392654
v -9.502759 1.818035 36.392654
v -8.404204 1.818035 36.392654
v -9.502759 1.818035 32.756584
v -8.404204 1.818035 32.756584
v -9.502759 -1.818035 32.756584
v -8.404204 -1.818035 32.756584
v -9.000000 -1.250000 35.824619
v 9.000000 -1.250000 35.824619
v -9.000000 1.250000 35.824619
v 9.000000 1.250000 35.824619
v -9.000000 1.250000 33.324619
v 9.000000 1.250000 33.324619
v -9.000000 -1.250000 33.324619
v 9.000000 -1.250000 33.324619
v 8.980333 -1.818035 36.392654
v 10.078888 -1.818035 36.392654
v 8.980333 1.818035 36.392654
v 10.078888 1.818035 36.392654
v 8.980333 1.818035 32.756584
v 10.078888 1.818035 32.756584
v 8.980333 -1.818035 32.756584
v 10.078888 -1.818035 32.756584
vt 0.564955 0.238615
vt 0.669225 0.238615
vt 0.669225 0.342884
vt 0.564955 0.342884
vt 0.669225 0.447153
vt 0.564955 0.447153
vt 0.669225 0.551423
vt 0.564955 0.551423
vt 0.669225 0.655692
vt 0.564955 0.655692
vt 0.773494 0.238615
vt 0.773494 0.342884
vt 0.460686 0.238615
vt 0.460686 0.342884
vt 0.232120 0.010000
vt 0.454240 0.010000
vt 0.454240 0.232120
vt 0.232120 0.232120
vt 0.454240 0.454240
vt 0.232120 0.454240
vt 0.454240 0.676360
vt 0.232120 0.676360
vt 0.454240 0.898480
vt 0.232120 0.898480
vt 0.676360 0.010000
vt 0.676360 0.232120
vt 0.010000 0.010000
vt 0.010000 0.232120
vt 0.781462 0.349379
vt 0.885731 0.349379
vt 0.885731 0.453649
vt 0.781462 0.453649
vt 0.885731 0.557918
vt 0.781462 0.557918
vt 0.885731 0.662187
vt 0.781462 0.662187
vt 0.885731 0.766456
vt 0.781462 0.766456
vt 0.990000 0.349379
vt 0.990000 0.453649
vt 0.677193 0.349379
vt 0.677193 0.453649
vn 0.000000 0.000000 1.000000
vn 0.000000 0.000000 1.000000
vn 0.000000 0.000000 1.000000
vn 0.000000 0.000000 1.000000
vn 0.000000 1.000000 0.000000
vn 0.000000 1.000000 0.000000
vn 0.000000 1.000000 0.000000
vn 0.000000 1.000000 0.000000
vn 0.000000 0.000000 -1.000000
vn 0.000000 0.000000 -1.000000
vn 0.000000 0.000000 -1.000000
vn 0.000000 0.000000 -1.000000
vn 0.000000 -1.000000 0.000000
vn 0.000000 -1.000000 0.000000
vn 0.000000 -1.000000 0.000000
vn 0.000000 -1.000000 0.000000
vn 1.000000 0.000000 0.000000
vn 1.000000 0.000000 0.000000
vn 1.000000 0.000000 0.000000
vn 1.000000 0.000000 0.000000
vn -1.000000 0.000000 0.000000
vn -1.000000 0.000000 0.000000
vn -1.000000 0.000000 0.000000
vn -1.000000 0.000000 0.000000
vn 0.000000 0.000000 1.000000
vn 0.000000 0.000000 1.000000
vn 0.000000 0.000000 1.000000
vn 0.000000 0.000000 1.000000
vn 0.000000 1.000000 0.000000
vn 0.000000 1.000000 0.000000
vn 0.000000 1.000000 0.000000
vn 0.000000 1.000000 0.000000
vn 0.000000 0.000000 -1.000000
vn 0.000000 0.000000 -1.000000
vn 0.000000 0.000000 -1.000000
vn 0.000000 0.000000 -1.000000
vn 0.000000 -1.000000 0.000000
vn 0.000000 -1.000000 0.000000
vn 0.000000 -1.000000 0.000000
vn 0.000000 -1.000000 0.000000
vn 1.000000 0.000000 0.000000
vn 1.000000 0.000000 0.000000
vn 1.000000 0.000000 0.000000
vn 1.000000 0.000000 0.000000
vn -1.000000 0.000000 0.000000
vn -1.000000 0.000000 0.000000
vn -1.000000 0.000000 0.000000
vn -1.000000 0.000000 0.000000
vn 0.000000 0.000000 1.000000
vn 0.000000 0.000000 1.000000
vn 0.000000 0.000000 1.000000
vn 0.000000 0.000000 1.000000
vn 0.000000 1.000000 0.000000
vn 0.000000 1.000000 0.000000
vn 0.000000 1.000000 0.000000
vn 0.000000 1.000000 0.000000
vn 0.000000 0.000000 -1.000000
vn 0.000000 0.000000 -1.000000
vn 0.000000 0.000000 -1.000000
vn 0.000000 0.000000 -1.000000
vn 0.000000 -1.000000 0.000000
vn 0.000000 -1.000000 0.000000
vn 0.000000 -1.000000 0.000000
vn 0.000000 -1.000000 0.000000
vn 1.000000 0.000000 0.000000
vn 1.000000 0.000000 0.000000
vn 1.000000 0.000000 0.000000
vn 1.000000 0.000000 0.000000
vn -1.000000 0.000000 0.000000
vn -1.000000 0.000000 0.000000
vn -1.000000 0.000000 0.000000
vn -1.000000 0.000000 0.000000
s off
g pipe_solid:pCube4
usemtl initialShadingGroup
f 1/1/1 2/2/2 4/3/3 3/4/4
f 3/4/5 4/3/6 6/5/7 5/6/8
f 5/6/9 6/5/10 8/7/11 7/8/12
f 7/8/13 8/7/14 2/9/15 1/10/16
f 2/2/17 8/11/18 6/12/19 4/3/20
f 7/13/21 1/1/22 3/4/23 5/14/24
f 9/15/25 10/16/26 12/17/27 11/18/28
f 11/18/29 12/17/30 14/19/31 13/20/32
f 13/20/33 14/19/34 16/21/35 15/22/36
f 15/22/37 16/21/38 10/23/39 9/24/40
f 10/16/41 16/25/42 14/26/43 12/17/44
f 15/27/45 9/15/46 11/18/47 13/28/48
f 17/29/49 18/30/50 20/31/51 19/32/52
f 19/32/53 20/31/54 22/33/55 21/34/56
f 21/34/57 22/33/58 24/35/59 23/36/60
f 23/36/61 24/35/62 18/37/63 17/38/64
f 18/30/65 24/39/66 22/40/67 20/31/68
f 23/41/69 17/29/70 19/32/71 21/42/72
