# This file uses centimeters as units for non-parametric coordinates.

mtllib Floor hole.mtl
g default
v 13.167665 -16.042406 12.824818
v 6.922651 -21.853947 12.824818
v 6.922651 -21.853947 13.824818
v 13.167665 -16.042406 13.824818
v -18.569859 6.922653 12.824818
v -15.645731 13.167669 12.824818
v -15.645731 13.167669 13.824818
v -18.569859 6.922653 13.824818
v 18.123737 -15.248999 12.824818
v 18.123737 -15.248999 13.824818
v -15.645681 19.714727 12.824818
v -15.645681 19.714727 13.824818
v -6.922655 19.714756 12.824818
v -6.922655 19.714756 13.824818
v 21.305731 -6.922651 12.824818
v 21.305731 -6.922651 13.824818
v 22.402170 -4.582245 12.824818
v 22.402170 -4.582245 13.824818
v 0.000000 22.402182 12.824818
v 0.000000 22.402182 13.824818
v -33.077675 33.077675 12.824818
v 33.077675 33.077675 12.824818
v -25.138052 -1.845243 12.824818
v -21.305737 -5.077410 12.824818
v -16.719324 -13.167667 12.824818
v -12.373758 -18.123739 12.824818
v -9.120980 -16.265907 12.824818
v -0.000001 -26.893787 12.824818
v -33.077675 -33.077675 12.824818
v 6.922655 19.714760 12.824818
v 6.922655 19.714760 13.824818
v 21.305744 11.504901 12.824818
v 21.305744 11.504901 13.824818
v 13.167673 19.714727 12.824818
v 13.167673 19.714727 13.824818
v 18.123749 13.167673 12.824818
v 18.123749 13.167673 13.824818
v -33.077675 -33.077675 13.824818
v -0.000001 -26.893787 13.824818
v -9.120980 -16.265907 13.824818
v -12.373758 -18.123739 13.824818
v -16.719324 -13.167667 13.824818
v -21.305737 -5.077410 13.824818
v -25.138052 -1.845243 13.824818
v 33.077675 33.077675 13.824818
v -33.077675 33.077675 13.824818
v 33.077675 -33.077675 13.824818
v 33.077675 -33.077675 12.824818
vt 0.857420 0.010000
vt 0.850651 0.010000
vt 0.850651 0.055547
vt 0.857420 0.055547
vt 0.803262 0.010000
vt 0.796493 0.010000
vt 0.796493 0.055547
vt 0.803262 0.055547
vt 0.864190 0.010000
vt 0.864190 0.055547
vt 0.789723 0.010000
vt 0.789723 0.055547
vt 0.782953 0.010000
vt 0.782953 0.055547
vt 0.870960 0.010000
vt 0.870960 0.055547
vt 0.877730 0.010000
vt 0.877730 0.055547
vt 0.776183 0.010000
vt 0.776183 0.055547
vt 0.500000 0.500000
vt 0.377500 0.539536
vt 0.255000 0.500000
vt 0.351862 0.549488
vt 0.319557 0.549488
vt 0.377500 0.722098
vt 0.255000 0.745000
vt 0.343721 0.682740
vt 0.331675 0.689619
vt 0.315582 0.671265
vt 0.298596 0.641303
vt 0.284404 0.629334
vt 0.308729 0.596862
vt 0.319557 0.573735
vt 0.769414 0.010000
vt 0.769414 0.055547
vt 0.884499 0.010000
vt 0.884499 0.055547
vt 0.762644 0.010000
vt 0.762644 0.055547
vt 0.755874 0.010000
vt 0.749104 0.010000
vt 0.749104 0.055547
vt 0.755874 0.055547
vt 0.500000 0.255000
vt 0.255000 0.255000
vt 0.377500 0.215464
vt 0.351862 0.205512
vt 0.319557 0.205512
vt 0.377500 0.032902
vt 0.343721 0.072260
vt 0.255000 0.010000
vt 0.331675 0.065381
vt 0.315582 0.083735
vt 0.298596 0.113697
vt 0.284404 0.125666
vt 0.308729 0.158138
vt 0.319557 0.181265
vt 0.500000 0.010000
vt 0.745000 0.010000
vt 0.745000 0.255000
vt 0.500000 0.745000
vt 0.403138 0.549488
vt 0.426265 0.549488
vt 0.403138 0.703434
vt 0.426265 0.681912
vt 0.444619 0.678973
vt 0.444619 0.573735
vt 0.456404 0.579893
vt 0.460464 0.639470
vt 0.456404 0.648138
vt 0.403138 0.205512
vt 0.426265 0.205512
vt 0.403138 0.051566
vt 0.426265 0.073088
vt 0.444619 0.076027
vt 0.444619 0.181265
vt 0.456404 0.175107
vt 0.460464 0.115530
vt 0.456404 0.106862
vt 0.810032 0.010000
vt 0.810032 0.055547
vt 0.843881 0.010000
vt 0.843881 0.055547
vt 0.837111 0.010000
vt 0.837111 0.055547
vt 0.816802 0.010000
vt 0.816802 0.055547
vt 0.830341 0.010000
vt 0.830341 0.055547
vt 0.823572 0.010000
vt 0.823572 0.055547
vt 0.010000 0.010000
vt 0.010000 0.255000
vt 0.500000 0.990000
vt 0.255000 0.990000
vn -0.681244 0.732057 0.000000
vn -0.635966 0.771717 0.000000
vn -0.635966 0.771717 0.000000
vn -0.681244 0.732057 0.000000
vn 0.845222 -0.534415 0.000000
vn 0.974854 -0.222845 0.000000
vn 0.974854 -0.222845 0.000000
vn 0.845222 -0.534415 0.000000
vn -0.158075 0.987427 0.000000
vn -0.158075 0.987427 0.000000
vn -0.158075 0.987427 0.000000
vn -0.158075 0.987427 0.000000
vn 0.974854 -0.222845 0.000000
vn 1.000000 -0.000008 0.000000
vn 1.000000 -0.000008 0.000000
vn 0.974854 -0.222845 0.000000
vn 0.000003 -1.000000 0.000000
vn 0.169290 -0.985566 0.000000
vn 0.169290 -0.985566 0.000000
vn 0.000003 -1.000000 0.000000
vn -0.928124 0.372271 0.000000
vn -0.934112 0.356980 0.000000
vn -0.934112 0.356980 0.000000
vn -0.928124 0.372271 0.000000
vn -1.000000 0.000001 0.000000
vn -0.928124 0.372271 0.000000
vn -0.928124 0.372271 0.000000
vn -1.000000 0.000001 0.000000
vn 0.169290 -0.985566 0.000000
vn 0.361894 -0.932219 0.000000
vn 0.361894 -0.932219 0.000000
vn 0.169290 -0.985566 0.000000
vn -0.000000 0.000000 -1.000000
vn 0.000000 0.000000 -1.000000
vn -0.000000 0.000000 -1.000000
vn 0.000000 0.000000 -1.000000
vn 0.000000 0.000000 -1.000000
vn -0.000000 0.000000 -1.000000
vn 0.000000 0.000000 -1.000000
vn 0.000000 0.000000 -1.000000
vn -0.000000 0.000000 -1.000000
vn -0.000000 0.000000 -1.000000
vn -0.000000 0.000000 -1.000000
vn -0.000000 0.000000 -1.000000
vn -0.000000 0.000000 -1.000000
vn -0.000000 0.000000 -1.000000
vn -0.000000 0.000000 -1.000000
vn -0.000000 0.000000 -1.000000
vn -0.000000 0.000000 -1.000000
vn -0.000000 0.000000 -1.000000
vn -0.000000 0.000000 -1.000000
vn -0.000000 0.000000 -1.000000
vn 0.000000 0.000000 -1.000000
vn 0.000000 0.000000 -1.000000
vn -0.000000 0.000000 -1.000000
vn -0.000000 0.000000 -1.000000
vn -0.000000 0.000000 -1.000000
vn -0.000000 0.000000 -1.000000
vn -0.000000 0.000000 -1.000000
vn -0.000000 0.000000 -1.000000
vn -0.000000 0.000000 -1.000000
vn 0.000000 0.000000 -1.000000
vn 0.000000 0.000000 -1.000000
vn -0.000000 0.000000 -1.000000
vn 0.000000 0.000000 -1.000000
vn -0.000000 0.000000 -1.000000
vn 0.000000 0.000000 -1.000000
vn 0.000000 0.000000 -1.000000
vn -0.361894 -0.932219 0.000000
vn -0.199973 -0.979801 0.000000
vn -0.199973 -0.979801 0.000000
vn -0.361894 -0.932219 0.000000
vn -0.997685 -0.067998 0.000000
vn -1.000000 0.000001 0.000000
vn -1.000000 0.000001 0.000000
vn -0.997685 -0.067998 0.000000
vn -0.199973 -0.979801 0.000000
vn -0.000005 -1.000000 0.000000
vn -0.000005 -1.000000 0.000000
vn -0.199973 -0.979801 0.000000
vn -0.710204 -0.703996 0.000000
vn -0.463135 -0.886288 0.000000
vn -0.463135 -0.886288 0.000000
vn -0.710204 -0.703996 0.000000
vn -0.797316 -0.603562 0.000000
vn -0.710204 -0.703996 0.000000
vn -0.710204 -0.703996 0.000000
vn -0.797316 -0.603562 0.000000
vn 0.000000 0.000000 1.000000
vn 0.000000 0.000000 1.000000
vn 0.000000 0.000000 1.000000
vn 0.000000 0.000000 1.000000
vn 0.000000 0.000000 1.000000
vn 0.000000 0.000000 1.000000
vn 0.000000 0.000000 1.000000
vn 0.000000 0.000000 1.000000
vn 0.000000 0.000000 1.000000
vn 0.000000 0.000000 1.000000
vn 0.000000 0.000000 1.000000
vn 0.000000 0.000000 1.000000
vn 0.000000 0.000000 1.000000
vn 0.000000 0.000000 1.000000
vn 0.000000 0.000000 1.000000
vn 0.000000 0.000000 1.000000
vn 0.000000 0.000000 1.000000
vn 0.000000 0.000000 1.000000
vn 0.000000 0.000000 1.000000
vn 0.000000 0.000000 1.000000
vn 0.000000 0.000000 1.000000
vn 0.000000 0.000000 1.000000
vn 0.000000 0.000000 1.000000
vn 0.000000 0.000000 1.000000
vn 0.000000 0.000000 1.000000
vn 0.000000 0.000000 1.000000
vn 0.000000 0.000000 1.000000
vn 0.000000 0.000000 1.000000
vn 0.000000 0.000000 1.000000
vn 0.000000 0.000000 1.000000
vn 0.000000 0.000000 1.000000
vn 0.000000 0.000000 1.000000
vn 0.000000 0.000000 1.000000
vn 0.000000 0.000000 1.000000
vn 0.000000 0.000000 1.000000
vn 0.000000 0.000000 1.000000
vn 0.000000 1.000000 0.000000
vn 0.000000 1.000000 0.000000
vn 0.000000 1.000000 0.000000
vn 0.000000 1.000000 0.000000
vn 1.000000 0.000000 0.000000
vn 1.000000 0.000000 0.000000
vn 1.000000 0.000000 0.000000
vn 1.000000 0.000000 0.000000
vn -0.000000 0.000000 -1.000000
vn -0.000000 0.000000 -1.000000
vn -0.000000 0.000000 -1.000000
vn 0.000000 0.000000 -1.000000
vn -0.000000 0.000000 -1.000000
vn 0.000000 0.000000 -1.000000
vn 0.000000 0.000000 -1.000000
vn -0.000000 0.000000 -1.000000
vn 0.000000 0.000000 -1.000000
vn -0.000000 0.000000 -1.000000
vn -0.000000 0.000000 -1.000000
vn -0.000000 0.000000 -1.000000
vn -0.000000 0.000000 -1.000000
vn 0.000000 0.000000 -1.000000
vn -0.000000 0.000000 -1.000000
vn 0.000000 0.000000 -1.000000
vn 0.000000 0.000000 -1.000000
vn -0.000000 0.000000 -1.000000
vn 0.000000 0.000000 -1.000000
vn -0.000000 0.000000 -1.000000
vn -0.000000 0.000000 -1.000000
vn -0.000000 0.000000 -1.000000
vn -0.000000 0.000000 -1.000000
vn -0.000000 0.000000 -1.000000
vn -0.000000 0.000000 -1.000000
vn -0.000000 0.000000 -1.000000
vn -0.000000 0.000000 -1.000000
vn -0.000000 0.000000 -1.000000
vn -0.000000 0.000000 -1.000000
vn 0.000000 0.000000 -1.000000
vn 0.000000 0.000000 -1.000000
vn -0.000000 0.000000 -1.000000
vn 0.000000 0.000000 -1.000000
vn -0.000000 0.000000 -1.000000
vn 0.000000 0.000000 -1.000000
vn 0.000000 0.000000 -1.000000
vn 0.000000 0.000000 1.000000
vn 0.000000 0.000000 1.000000
vn 0.000000 0.000000 1.000000
vn 0.000000 0.000000 1.000000
vn 0.000000 0.000000 1.000000
vn 0.000000 0.000000 1.000000
vn 0.000000 0.000000 1.000000
vn 0.000000 0.000000 1.000000
vn 0.000000 0.000000 1.000000
vn 0.000000 0.000000 1.000000
vn 0.000000 0.000000 1.000000
vn 0.000000 0.000000 1.000000
vn 0.000000 0.000000 1.000000
vn 0.000000 0.000000 1.000000
vn 0.000000 0.000000 1.000000
vn 0.000000 0.000000 1.000000
vn 0.000000 0.000000 1.000000
vn 0.000000 0.000000 1.000000
vn 0.000000 0.000000 1.000000
vn 0.000000 0.000000 1.000000
vn 0.000000 0.000000 1.000000
vn 0.000000 0.000000 1.000000
vn 0.000000 0.000000 1.000000
vn 0.000000 0.000000 1.000000
vn 0.000000 0.000000 1.000000
vn 0.000000 0.000000 1.000000
vn 0.000000 0.000000 1.000000
vn 0.000000 0.000000 1.000000
vn 0.000000 0.000000 1.000000
vn 0.000000 0.000000 1.000000
vn 0.000000 0.000000 1.000000
vn 0.000000 0.000000 1.000000
vn 0.000000 0.000000 1.000000
vn 0.000000 0.000000 1.000000
vn 0.000000 0.000000 1.000000
vn 0.000000 0.000000 1.000000
vn 0.800339 -0.599548 0.000000
vn 0.845222 -0.534415 0.000000
vn 0.845222 -0.534415 0.000000
vn 0.800339 -0.599548 0.000000
vn -0.635966 0.771717 0.000000
vn -0.588568 0.808448 0.000000
vn -0.588568 0.808448 0.000000
vn -0.635966 0.771717 0.000000
vn 0.758855 0.651260 0.000000
vn 0.758855 0.651260 0.000000
vn 0.758855 0.651260 0.000000
vn 0.758855 0.651260 0.000000
vn 0.802480 0.596679 0.000000
vn 0.644714 0.764424 0.000000
vn 0.644714 0.764424 0.000000
vn 0.802480 0.596679 0.000000
vn -0.495958 0.868346 0.000000
vn -0.495958 0.868346 0.000000
vn -0.495958 0.868346 0.000000
vn -0.495958 0.868346 0.000000
vn 0.825144 0.564923 0.000000
vn 0.802480 0.596679 0.000000
vn 0.802480 0.596679 0.000000
vn 0.825144 0.564923 0.000000
vn 0.751900 0.659278 0.000000
vn 0.825144 0.564923 0.000000
vn 0.825144 0.564923 0.000000
vn 0.751900 0.659278 0.000000
vn -1.000000 0.000000 0.000000
vn -1.000000 0.000000 0.000000
vn -1.000000 0.000000 0.000000
vn -1.000000 0.000000 0.000000
vn 0.000000 -1.000000 0.000000
vn 0.000000 -1.000000 0.000000
vn 0.000000 -1.000000 0.000000
vn 0.000000 -1.000000 0.000000
s off
g Floor_hole:polySurface1
usemtl initialShadingGroup
f 1/1/1 2/2/2 3/3/3 4/4/4
f 5/5/5 6/6/6 7/7/7 8/8/8
f 9/9/9 1/1/10 4/4/11 10/10/12
f 6/6/13 11/11/14 12/12/15 7/7/16
f 11/11/17 13/13/18 14/14/19 12/12/20
f 15/15/21 9/9/22 10/10/23 16/16/24
f 17/17/25 15/15/26 16/16/27 18/18/28
f 13/13/29 19/19/30 20/20/31 14/14/32
f 22/21/33 19/22/34 21/23/35
f 19/22/36 13/24/37 21/23/38
f 13/24/39 11/25/40 21/23/41
f 28/26/42 29/27/43 27/28/44
f 27/28/45 29/27/46 26/29/47
f 26/29/48 29/27/49 25/30/50
f 25/30/51 29/27/52 24/31/53
f 24/31/54 29/27/55 23/32/56
f 29/27/57 21/23/58 23/32/59
f 23/32/60 21/23/61 5/33/62
f 5/33/63 21/23/64 6/34/65
f 21/23/66 11/25/67 6/34/68
f 19/19/69 30/35/70 31/36/71 20/20/72
f 32/37/73 17/17/74 18/18/75 33/38/76
f 30/35/77 34/39/78 35/40/79 31/36/80
f 36/41/81 32/42/82 33/43/83 37/44/84
f 34/39/85 36/41/86 37/44/87 35/40/88
f 45/45/89 46/46/90 20/47/91
f 20/47/92 46/46/93 14/48/94
f 14/48/95 46/46/96 12/49/97
f 39/50/98 40/51/99 38/52/100
f 40/51/101 41/53/102 38/52/103
f 41/53/104 42/54/105 38/52/106
f 42/54/107 43/55/108 38/52/109
f 43/55/110 44/56/111 38/52/112
f 38/52/113 44/56/114 46/46/115
f 44/56/116 8/57/117 46/46/118
f 8/57/119 7/58/120 46/46/121
f 7/58/122 12/49/123 46/46/124
f 46/46/125 45/45/126 22/21/127 21/23/128
f 47/59/129 48/60/130 22/61/131 45/45/132
f 29/27/133 28/26/134 48/62/135
f 19/22/136 22/21/137 30/63/138
f 30/63/139 22/21/140 34/64/141
f 28/26/142 2/65/143 48/62/144
f 2/65/145 1/66/146 48/62/147
f 1/66/148 9/67/149 48/62/150
f 34/64/151 22/21/152 36/68/153
f 36/68/154 22/21/155 32/69/156
f 22/21/157 48/62/158 32/69/159
f 32/69/160 48/62/161 17/70/162
f 17/70/163 48/62/164 15/71/165
f 48/62/166 9/67/167 15/71/168
f 38/52/169 47/59/170 39/50/171
f 20/47/172 31/72/173 45/45/174
f 31/72/175 35/73/176 45/45/177
f 39/50/178 47/59/179 3/74/180
f 3/74/181 47/59/182 4/75/183
f 4/75/184 47/59/185 10/76/186
f 35/73/187 37/77/188 45/45/189
f 37/77/190 33/78/191 45/45/192
f 45/45/193 33/78/194 47/59/195
f 33/78/196 18/79/197 47/59/198
f 18/79/199 16/80/200 47/59/201
f 16/80/202 10/76/203 47/59/204
f 23/81/205 5/5/206 8/8/207 44/82/208
f 2/2/209 28/83/210 39/84/211 3/3/212
f 28/83/213 27/85/214 40/86/215 39/84/216
f 24/87/217 23/81/218 44/82/219 43/88/220
f 27/85/221 26/89/222 41/90/223 40/86/224
f 25/91/225 24/87/226 43/88/227 42/92/228
f 26/89/229 25/91/230 42/92/231 41/90/232
f 29/93/233 38/52/234 46/46/235 21/94/236
f 29/27/237 48/62/238 47/95/239 38/96/240
